<?xml version="1.0" standalone="yes"?>
<svg xmlns="http://www.w3.org/2000/svg" width="505" height="242">
<path style="fill:#000000; stroke:none;" d="M505 92C503.278 95.6176 503.088 102.419 499.414 104.604C486.996 111.991 467.791 100.375 453.081 111.371C439.888 121.232 437.578 141.984 455 148.775C466.975 153.442 479.873 149.72 492 148C490.316 152.738 489.983 161.635 485.54 164.619C461.457 180.795 417.302 157.635 420.226 129C422.98 102.016 451.658 88.5147 476 88.0186C481.307 87.9104 500.2 92.0021 503.74 88.6999C509.945 82.9125 505 49.6317 505 41C505 34.3142 508.895 4.43768 503.178 0.821655C497.101 -3.0228 481.123 0 474 0L398 0L114 0L28 0C23.0145 0 2.60649 -2.82037 0.501457 2.50145C-5.00674 16.427 0 41.9624 0 57L0 186L0 227C0 230.38 -1.54602 239.048 1.82165 241.178C6.66099 244.239 18.3912 242 24 242L80 242L293 242L450 242C459.957 242 496.848 247.632 503.74 240.74C509 235.481 505 210.397 505 203L505 92z"/>
<path style="fill:#e30613; stroke:none;" d="M149 166C155.3 166 165.779 168.022 171.495 165.178C182.48 159.713 195.332 122.592 199 111C206.096 125.203 205.961 153.099 217.023 164.178C220.926 168.087 234.601 166.863 238.476 163.499C252.598 151.239 268.21 127.493 277 111C280.02 122.936 278.231 137.71 277.981 150C277.907 153.686 275.34 161.806 278.26 164.74C280.936 167.429 295.961 167.386 297.499 163.499C300.283 156.459 298 144.539 298 137C298 120.396 301.575 99.1079 297.474 83.0213C294.43 71.0837 280.572 74.9805 274.798 82.0488C271.924 85.5664 269.349 89.3644 266.625 93C261.409 99.963 256.333 107.029 251.127 114C244.035 123.496 235.032 133.26 230 144C224.173 128.065 220.235 111.274 215.438 95C213.693 89.0803 212.724 79.7405 206.813 76.3837C196.481 70.516 189.519 82.4776 185.75 90C174.045 113.365 154.513 140.471 149 166M312 166C317.865 166 328.294 168.01 333.383 164.74C338.564 161.411 339.39 153.431 345.26 150.822C352.066 147.797 364.623 149.728 371.997 150.03C382.814 150.472 377.896 159.718 384.024 164.74C388.078 168.063 398.985 166 404 166C400.985 146.174 393.768 126.327 388.438 107C386.577 100.253 385.325 89.9867 377.951 86.9403C367.22 82.5066 360.322 93.6218 355.322 101C341.348 121.619 321.623 143.018 312 166M492 148C484.312 148.746 476.767 150.965 469 150.963C445.024 150.956 432.92 126.817 454.041 111.371C469.317 100.199 483.133 109.507 498.642 105.362C503.506 104.062 504.123 94.1 505 90C491.917 88.7753 479.15 86.7616 466 88.9214C456.883 90.4189 447.859 92.687 440 97.7478C434.34 101.393 429.093 106.225 425.565 112C406.764 142.773 433.743 166.927 464 166.999C470.054 167.014 481.131 168.495 486.259 164.619C490.229 161.618 490.732 152.556 492 148M82 166C76.5001 155.008 68.1249 145.655 62 135C78.9146 132.749 97.5315 110.246 80.8131 95.507C71.0988 86.9427 33.4931 85.8873 21.4827 90.5014C17.3182 92.1014 16.8145 101.241 15.8748 105C12.2963 119.314 8.87924 133.666 5.3798 148C4.54683 151.412 0.117283 162.739 3.84038 165.178C28.5197 181.349 22.309 138.296 35.0435 138.296C45.4123 138.296 50.3385 157.38 56.8222 163.499C62.1529 168.529 75.1511 166 82 166M143 90C137.794 90 126.221 87.8196 122.024 91.2598C112.335 99.2008 110.178 134.787 107.125 147C106.104 151.087 101.969 160.184 103.965 164.178C105.383 167.016 111.467 166 114 166C128.248 166 127.142 155.934 130.125 144C131.872 137.011 133.661 130.034 135.217 123C137.661 111.96 140.818 101.101 143 90z"/>
<path style="fill:#000000; stroke:none;" d="M33 124C42.2659 124 67.1573 125.832 64.5834 110.01C63.2242 101.655 44.6238 98.0179 39.116 103.822C35.0535 108.102 34.5581 118.404 33 124M369 111C363.923 119.832 357.491 127.826 353 137L376 137C374.188 128.53 372.729 118.833 369 111z"/>
</svg>
